<svg xmlns="http://www.w3.org/2000/svg" version="1.1" viewBox="0 0 430 430"><path fill="#E84895" d="M213.2 29c-1.7 1.9-11.2 22.4-11.2 24.5-.1.6-.9 2.8-2 5s-1.9 4.3-2 4.8c0 .4-.9 2.7-2.1 5.1-1.1 2.5-2.2 5.1-2.3 5.8-.4 2.2-5.9 13.2-7.3 14.6-.7.7-1.3 2-1.3 2.8 0 .8-.4 1.4-.8 1.4-1.7 0-4.3 6.1-3.8 9.1.6 3.7 3 6 14.8 14 11.3 7.7 21.9 16.2 27.4 22.1 4.9 5.3 12.4 14.4 12.4 15.1 0 .3 1.3 2.5 2.9 4.9 7.2 10.7 10.1 22 10.1 38.9 0 9.2.4 13.8 1.6 17 2.1 5.8 2.1 18 0 23.8-2 5.5-2 5.8.4 6.6 5 1.6 24-8.8 31.5-17.1 9.4-10.5 18.4-26 23.6-41.1 7.1-20.1 8.7-33.8 5.5-46-1.6-6-6.4-16-9.2-19.4-.8-.8-1.4-1.9-1.4-2.4 0-1.7-21.9-32.4-26.2-36.7-1-1-4.8-5.2-8.5-9.5s-7.2-8.3-7.8-8.9c-19.3-20.5-32.6-33.9-34.7-35-3.8-2-7.4-1.7-9.6.6z"/><path fill="#E84895" d="M137.5 111.9c-14.1 3.3-22.4 5.8-30.7 9-1.2.5-4.3 1.7-6.8 2.6-5.9 2.3-7.4 2.9-14.3 5.9-3.2 1.4-6 2.6-6.3 2.6-.3 0-6.7 3-14.2 6.6-7.6 3.7-19.2 9.3-26 12.6-10.7 5.2-12.4 6.3-13.7 9.3-1.2 2.9-1.2 3.9-.1 6.1 1.4 2.5 9.6 10.8 15.2 15.1 1.6 1.3 4.3 3.5 6 5 1.7 1.6 4.9 4.1 7 5.8 9.5 7.4 22.1 19.5 25 24.1 2 3.1 4 4.7 6.4 5.1 1.6.2 8.8-3.6 13.5-7.4 1.7-1.3 3.5-2.7 4-3.1.6-.4 3.7-2.8 7-5.3 23-17.6 46.2-25.8 69-24.6 10.6.6 11.4.8 18.5 3.9 2.7 1.2 8.3 2.3 14.4 2.9 11.6 1 17.9 2.9 23.7 7.1 5.4 3.9 7.3 3 7.7-3.7.3-4-.3-8.3-2.2-15.5-1.2-4.4-6.2-15.3-9.1-19.6-10.6-15.7-27.5-30.2-49-42-13.5-7.4-21.8-7.9-45-2.5zM320.2 158.8c-2 2.1-3.6 6-5.7 13.3-9.3 34-23 56.2-42.6 69.1-8 5.3-10.5 6.3-21.1 9.2-6.5 1.7-11.6 3.8-15.2 6.2-6.1 4-16.7 7.4-23.3 7.4-3.8 0-4.3.3-4.3 2.3 0 2.7 6.1 10.3 12.2 15.2 2.4 1.9 4.8 4 5.5 4.5.7.6 1.5 1 1.9 1 .3 0 1.8.8 3.2 1.8 2.8 1.9 10.2 4.9 18.7 7.7 15.6 5.1 47.7 5.9 62.6 1.5 13.3-4 17.5-6.8 29.9-20.9 10.8-12.3 20.4-24.9 26.5-34.9.6-.9 2.3-3.6 3.8-5.9 1.5-2.4 2.7-4.6 2.7-5 0-.3.6-1.4 1.4-2.2 1.4-1.7 3-4.5 11.8-20.9 2.9-5.3 6.5-12 8-14.7 8.4-15.3 10-19.4 9.4-23-1.1-5.7-2.3-6.1-25-8.1-2.8-.2-10.2-.6-16.6-.8-10.5-.4-17.1-1-24-2.2-1.4-.3-4-.7-5.9-1-1.9-.2-3.8-.7-4.3-1-.5-.3-2.3-.8-3.9-1.1-2.3-.3-3.6.2-5.7 2.5z"/><path fill="#E84895" d="M158 187.5c-14.2 3-36.2 13.8-45.5 22.2-1.1 1-4.3 3.6-7 5.8-15.8 12.7-20.8 20.9-23.2 37.7-1.9 14-2.2 50.6-.4 66.8 3.2 30 8.2 63.5 9.8 65.2 2.9 3.2 9.2 2.3 17.5-2.4 4-2.3 7.5-4.6 7.6-5 .2-.4.9-.8 1.5-.8 1.1 0 8.1-4.5 10.5-6.7.7-.7 1.7-1.3 2.2-1.3.5 0 1.5-.6 2.2-1.4.8-.7 3-2.1 4.8-3.1 1.9-1 3.7-2.1 4-2.4 1.6-2 21.5-11.1 24.7-11.3 3.3-.3 3.3-9.4-.1-16.9-4.2-9.5-9.4-27.1-11.1-37.8-2.1-12.3-1.6-32.2 1-41.6 2.5-9 7.9-19.6 12.8-25.1 4-4.4 9.5-13.4 8.3-13.4-.3 0 .4-2.1 1.5-4.7 2.5-5.8 7.5-12.1 12.3-15.4 4.2-2.8 4.5-4.1 1.3-6.2-5.5-3.6-22.9-4.7-34.7-2.2z"/><path fill="#E84895" d="M205 195.3c-1.4.6-4.4 1.9-6.6 2.8-2.4 1.1-5.9 3.9-8.1 6.6-9.5 11.5-10.5 27.5-2.6 39.5 2.9 4.3 11.4 10.8 14.1 10.8 1 0 2.3.5 2.9 1.1 1.7 1.7 13.1 1.7 18.7.1 20.1-5.8 28.6-31.4 16.3-48.8-5.8-8.2-16.6-13.4-27.2-13.3-2.7.1-6.1.6-7.5 1.2z"/><path fill="#E84895" d="M170.9 237.2c-8.1 11-11.3 22.8-11.3 41.3 0 15.2 1.8 24.9 7.6 41.3 8.8 25.1 15 33 32.3 41.2 23.7 11.2 53.6 20.1 85 25.4 5.5 1 12 2.2 14.5 2.7s6.1 1.1 8 1.4c1.9.3 5 1 6.8 1.5 4.9 1.3 13.8.1 15.9-2.2 1.6-1.8 1.6-2.4 0-10.6-.9-4.8-3.7-16.1-6.2-25.2-5.6-20.6-7.5-30.4-7.5-38.9 0-9.3-.8-9.7-19.9-9.3-35.8.7-62.2-5.9-78.5-19.8-6.5-5.4-9.6-9-15.3-17.6-3.6-5.4-7.7-10.1-10.2-11.9-5.2-3.5-9.2-8.5-12.1-15-3.4-7.6-3.6-7.9-4.8-8.3-.6-.2-2.5 1.6-4.3 4z"/></svg>